<svg version="1.1" xmlns="http://www.w3.org/2000/svg" xmlns:xlink="http://www.w3.org/1999/xlink" width="16" height="16" viewBox="0,0,256,256"><g fill="#152786" fill-rule="evenodd" stroke="none" stroke-width="1" stroke-linecap="butt" stroke-linejoin="miter" stroke-miterlimit="10" stroke-dasharray="" stroke-dashoffset="0" font-family="none" font-weight="none" font-size="none" text-anchor="none" style="mix-blend-mode: normal"><g transform="translate(0,0.0021) scale(16,16)"><path d="M4.646,1.646c0.0938,-0.09404 0.22117,-0.14689 0.354,-0.14689c0.13283,0 0.2602,0.05285 0.354,0.14689l6,6c0.09404,0.0938 0.14689,0.22117 0.14689,0.354c0,0.13283 -0.05285,0.2602 -0.14689,0.354l-6,6c-0.19551,0.19551 -0.51249,0.19551 -0.708,0c-0.19551,-0.19551 -0.19551,-0.51249 0,-0.708l5.647,-5.646l-5.647,-5.646c-0.09404,-0.0938 -0.14689,-0.22117 -0.14689,-0.354c0,-0.13283 0.05285,-0.2602 0.14689,-0.354z"></path></g></g></svg>